<svg xmlns="http://www.w3.org/2000/svg" xmlns:xlink="http://www.w3.org/1999/xlink" width="300" zoomAndPan="magnify" viewBox="0 0 224.87999 149.999998" height="200" preserveAspectRatio="xMidYMid meet" version="1.0"><defs><g/><clipPath id="5e0b2669e4"><path d="M 55 15 L 173 15 L 173 125 L 55 125 Z M 55 15 " clip-rule="nonzero"/></clipPath><clipPath id="9f31097b5a"><path d="M 192.613281 93.480469 L 67.472656 143.933594 L 32.15625 56.335938 L 157.296875 5.882812 Z M 192.613281 93.480469 " clip-rule="nonzero"/></clipPath><clipPath id="4551675585"><path d="M 192.613281 93.480469 L 67.472656 143.933594 L 32.15625 56.335938 L 157.296875 5.882812 Z M 192.613281 93.480469 " clip-rule="nonzero"/></clipPath></defs><g clip-path="url(#5e0b2669e4)"><g clip-path="url(#9f31097b5a)"><g clip-path="url(#4551675585)"><path fill="#f97316" d="M 100.964844 86.652344 C 100.964844 86.652344 100.949219 86.660156 100.949219 86.660156 C 100.949219 86.660156 100.933594 86.667969 100.933594 86.667969 C 100.867188 86.691406 100.820312 86.710938 100.964844 86.652344 Z M 88.3125 75.363281 C 88.308594 75.347656 88.308594 75.347656 88.3125 75.363281 C 88.261719 75.613281 88.285156 75.433594 88.3125 75.363281 Z M 81.714844 73.703125 C 81.59375 73.917969 81.648438 73.820312 81.714844 73.703125 Z M 72.695312 87.34375 C 72.792969 87.210938 72.652344 87.382812 72.609375 87.457031 C 72.609375 87.457031 72.609375 87.457031 72.625 87.449219 C 72.648438 87.421875 72.675781 87.390625 72.695312 87.34375 Z M 55.667969 113.863281 C 56.417969 112.863281 57.136719 111.839844 57.789062 110.78125 C 58.375 109.847656 58.90625 108.878906 59.402344 107.902344 C 59.65625 107.40625 59.902344 106.890625 60.128906 106.382812 C 60.253906 106.125 60.359375 105.875 60.476562 105.601562 C 60.496094 105.554688 60.523438 105.488281 60.542969 105.441406 C 60.554688 105.417969 60.554688 105.417969 60.5625 105.398438 C 60.5625 105.398438 60.574219 105.375 60.574219 105.375 C 60.621094 105.261719 60.671875 105.144531 60.71875 105.03125 C 61.472656 103.199219 62.070312 101.316406 62.539062 99.386719 C 62.542969 99.347656 62.554688 99.289062 62.558594 99.25 C 62.5625 99.210938 62.574219 99.1875 62.589844 99.140625 C 62.621094 98.976562 62.671875 98.824219 62.699219 98.664062 C 62.761719 98.394531 62.980469 98.230469 63.195312 98.066406 C 63.296875 97.988281 63.421875 97.917969 63.550781 97.867188 C 63.671875 97.742188 63.78125 97.640625 63.902344 97.519531 C 66.171875 95.1875 68.339844 92.746094 70.40625 90.234375 C 70.898438 89.636719 71.390625 89.023438 71.878906 88.410156 C 71.730469 88 72.019531 87.824219 72.363281 87.78125 C 72.433594 87.675781 72.527344 87.582031 72.597656 87.480469 C 72.597656 87.480469 72.613281 87.472656 72.609375 87.457031 C 72.632812 87.425781 72.644531 87.402344 72.667969 87.375 C 72.6875 87.367188 72.679688 87.351562 72.695312 87.34375 C 72.757812 87.261719 72.820312 87.183594 72.878906 87.101562 C 73.003906 86.9375 73.109375 86.78125 73.238281 86.632812 C 73.941406 85.710938 74.625 84.773438 75.28125 83.828125 C 75.273438 83.8125 75.273438 83.8125 75.269531 83.796875 C 75.234375 83.527344 75.402344 83.289062 75.546875 83.082031 C 75.714844 82.84375 75.949219 82.671875 76.1875 82.519531 C 77.984375 79.90625 79.679688 77.222656 81.269531 74.46875 C 81.367188 74.292969 81.480469 74.097656 81.578125 73.925781 C 81.617188 73.835938 81.679688 73.753906 81.71875 73.664062 C 81.707031 73.683594 81.691406 73.691406 81.683594 73.714844 C 81.707031 73.683594 81.71875 73.664062 81.726562 73.640625 C 81.921875 73.277344 82.121094 72.933594 82.316406 72.570312 C 82.710938 71.863281 83.082031 71.148438 83.460938 70.449219 C 84.214844 68.992188 84.945312 67.527344 85.636719 66.058594 C 87.023438 63.121094 88.269531 60.125 89.410156 57.097656 C 89.46875 56.960938 89.542969 56.820312 89.644531 56.703125 C 89.648438 56.664062 89.636719 56.628906 89.636719 56.589844 C 89.605469 56.039062 89.859375 55.5 90.214844 55.074219 C 90.160156 54.984375 90.128906 54.902344 90.074219 54.8125 C 89.777344 54.269531 90.671875 54.003906 91.039062 53.929688 C 91.375 53.871094 91.796875 53.890625 92.117188 53.988281 C 92.332031 54.050781 92.644531 54.171875 92.777344 54.402344 C 93.308594 55.394531 93.875 56.375 94.464844 57.328125 C 95.511719 58.980469 96.664062 60.574219 97.925781 62.066406 C 98.105469 62.277344 98.277344 62.472656 98.441406 62.691406 C 98.449219 62.707031 98.472656 62.714844 98.476562 62.734375 C 98.507812 62.757812 98.519531 62.792969 98.550781 62.816406 C 98.621094 62.902344 98.714844 62.996094 98.789062 63.078125 C 99.125 63.453125 99.460938 63.808594 99.792969 64.167969 C 100.3125 64.710938 100.851562 65.25 101.398438 65.765625 C 101.640625 65.707031 101.886719 65.664062 102.113281 65.664062 C 102.167969 65.664062 102.226562 65.660156 102.285156 65.671875 C 102.335938 65.652344 102.394531 65.609375 102.441406 65.589844 C 102.691406 65.453125 102.921875 65.324219 103.167969 65.183594 C 103.132812 65.144531 103.105469 65.078125 103.070312 65.035156 C 102.71875 64.496094 103.34375 64.265625 103.777344 64.222656 C 104.039062 64.210938 104.359375 64.25 104.617188 64.335938 C 104.632812 64.328125 104.667969 64.316406 104.675781 64.292969 C 104.71875 64.257812 104.785156 64.230469 104.824219 64.195312 C 104.917969 64.140625 105.007812 64.085938 105.082031 64.035156 C 105.265625 63.925781 105.429688 63.820312 105.613281 63.707031 C 105.992188 63.480469 106.347656 63.242188 106.722656 62.996094 C 107.378906 62.5625 108.011719 62.117188 108.660156 61.667969 C 108.601562 61.617188 108.566406 61.574219 108.507812 61.523438 C 108.347656 61.359375 108.460938 61.125 108.566406 60.96875 C 108.734375 60.730469 109.082031 60.609375 109.355469 60.539062 C 109.636719 60.441406 109.996094 60.394531 110.335938 60.445312 C 110.539062 60.289062 110.730469 60.152344 110.929688 59.996094 C 113.664062 57.875 116.242188 55.515625 118.597656 52.976562 C 118.746094 52.824219 118.902344 52.648438 119.046875 52.496094 C 119.125 52.40625 119.203125 52.320312 119.28125 52.230469 C 119.304688 52.203125 119.347656 52.164062 119.375 52.136719 C 119.375 52.136719 119.375 52.136719 119.390625 52.128906 C 119.390625 52.128906 119.40625 52.125 119.417969 52.101562 C 119.703125 51.777344 119.972656 51.460938 120.257812 51.140625 C 120.835938 50.472656 121.394531 49.792969 121.929688 49.105469 C 122.976562 47.777344 123.964844 46.433594 124.914062 45.03125 C 126.734375 42.335938 128.34375 39.496094 129.726562 36.558594 C 131.101562 33.644531 132.265625 30.625 133.195312 27.550781 C 134.0625 24.691406 134.714844 21.765625 135.171875 18.824219 C 135.257812 18.242188 136.097656 18.167969 136.570312 18.167969 C 135.601562 17.6875 134.652344 17.203125 133.699219 16.71875 C 133.488281 16.613281 133.300781 16.480469 133.265625 16.25 C 133.230469 16.019531 133.480469 15.84375 133.644531 15.738281 C 133.917969 15.570312 134.324219 15.503906 134.617188 15.480469 C 134.914062 15.472656 135.339844 15.488281 135.617188 15.621094 C 137.503906 16.597656 139.414062 17.546875 141.339844 18.433594 C 142.453125 18.945312 143.578125 19.4375 144.699219 19.929688 C 144.824219 19.539062 145.25 19.234375 145.566406 19.03125 C 145.839844 18.867188 146.203125 18.738281 146.535156 18.71875 C 146.683594 18.714844 147.066406 18.730469 147.136719 18.945312 C 147.394531 19.730469 147.6875 20.5 147.960938 21.277344 C 149.226562 21.785156 150.496094 22.273438 151.78125 22.738281 C 152.175781 22.882812 152.550781 23.011719 152.949219 23.15625 C 152.964844 23.148438 152.976562 23.125 152.992188 23.121094 C 153.214844 22.878906 153.554688 22.742188 153.871094 22.632812 C 154.316406 22.472656 155.15625 22.359375 155.421875 22.875 C 155.644531 23.332031 155.882812 23.785156 156.097656 24.226562 C 156.160156 24.238281 156.230469 24.269531 156.292969 24.28125 C 156.507812 24.34375 156.722656 24.410156 156.941406 24.492188 C 158.214844 24.882812 159.480469 25.261719 160.761719 25.632812 C 160.890625 25.390625 161.082031 25.164062 161.292969 24.984375 C 161.59375 24.691406 162.304688 24.253906 162.585938 24.765625 C 163.308594 26.136719 164.023438 27.488281 164.746094 28.859375 C 167.277344 33.636719 169.796875 38.433594 172.324219 43.210938 C 172.433594 43.433594 172.320312 43.761719 172.242188 43.984375 C 172.183594 44.121094 172.117188 44.238281 172.03125 44.351562 C 172.371094 44.496094 172.625 44.753906 172.335938 45.152344 C 172.246094 45.265625 172.128906 45.347656 171.992188 45.425781 C 172.101562 45.605469 172.140625 45.796875 172.09375 46.007812 C 171.894531 46.691406 171.714844 47.367188 171.519531 48.050781 C 170.027344 53.203125 168.300781 58.277344 165.960938 63.109375 C 163.539062 68.109375 160.449219 72.714844 157.011719 77.066406 C 153.25 81.832031 149.113281 86.367188 144.4375 90.273438 C 142.109375 92.230469 139.59375 93.90625 137.035156 95.5625 C 134.214844 97.378906 131.367188 99.113281 128.464844 100.773438 C 122.691406 104.101562 116.757812 107.136719 110.691406 109.882812 C 110.65625 109.898438 110.625 109.910156 110.59375 109.921875 C 110.878906 110.867188 111.171875 111.785156 111.507812 112.707031 C 112.148438 114.527344 112.875 116.328125 113.675781 118.082031 C 113.789062 118.320312 113.882812 118.546875 113.996094 118.785156 C 114.035156 118.882812 114.089844 118.972656 114.136719 119.085938 C 114.144531 119.101562 114.148438 119.121094 114.15625 119.136719 C 114.175781 119.183594 114.203125 119.25 114.238281 119.292969 C 114.453125 119.734375 114.664062 120.160156 114.894531 120.59375 C 115.253906 121.296875 115.636719 122.011719 116.027344 122.703125 C 116.230469 122.738281 116.433594 122.769531 116.632812 122.800781 C 116.859375 122.84375 117.082031 122.882812 117.191406 123.105469 C 117.296875 123.324219 117.113281 123.570312 116.984375 123.714844 C 116.785156 123.96875 116.421875 124.152344 116.128906 124.269531 C 115.855469 124.378906 115.445312 124.488281 115.144531 124.441406 C 114.699219 124.375 114.257812 124.304688 113.808594 124.222656 C 110.195312 123.640625 106.585938 123.074219 102.972656 122.492188 C 99.359375 121.910156 95.75 121.34375 92.136719 120.761719 C 88.519531 120.179688 84.914062 119.617188 81.296875 119.035156 C 77.683594 118.453125 74.078125 117.886719 70.460938 117.304688 C 66.847656 116.722656 63.238281 116.15625 59.625 115.574219 C 59.402344 115.53125 59.175781 115.492188 59.070312 115.269531 C 58.960938 115.050781 59.144531 114.804688 59.273438 114.660156 C 59.441406 114.460938 59.695312 114.300781 59.933594 114.183594 C 59.988281 113.992188 60.066406 113.8125 60.140625 113.667969 C 60.300781 113.359375 60.515625 113.101562 60.769531 112.886719 C 61.039062 112.664062 61.308594 112.441406 61.578125 112.21875 C 62.125 111.753906 62.65625 111.292969 63.207031 110.828125 C 63.484375 110.582031 63.746094 110.34375 64.027344 110.097656 C 64.085938 110.058594 64.136719 110 64.210938 109.949219 C 64.238281 109.917969 64.253906 109.914062 64.28125 109.882812 C 64.414062 109.753906 64.558594 109.640625 64.679688 109.515625 C 64.941406 109.277344 65.203125 109.039062 65.46875 108.800781 C 65.460938 108.785156 65.4375 108.773438 65.429688 108.757812 C 64.566406 107.878906 63.640625 107.082031 62.65625 106.328125 C 61.429688 108.996094 59.925781 111.542969 58.152344 113.882812 C 57.746094 114.425781 57.050781 114.667969 56.398438 114.6875 C 56.175781 114.699219 55.816406 114.65625 55.652344 114.476562 C 55.550781 114.273438 55.546875 114.027344 55.667969 113.863281 Z M 67.4375 106.949219 C 67.574219 106.816406 67.726562 106.679688 67.863281 106.550781 C 68.5625 105.890625 69.234375 105.222656 69.902344 104.539062 C 69.609375 104.5625 69.296875 104.539062 69.046875 104.46875 C 68.8125 104.410156 68.402344 104.277344 68.238281 104.058594 C 67.171875 102.582031 66.117188 101.097656 65.050781 99.621094 C 64.859375 100.359375 64.648438 101.105469 64.402344 101.847656 C 64.203125 102.4375 64.007812 103.027344 63.789062 103.605469 C 65.054688 104.546875 66.234375 105.601562 67.316406 106.734375 C 67.394531 106.796875 67.421875 106.859375 67.4375 106.949219 Z M 169.445312 45.429688 C 167.847656 45.167969 166.257812 44.882812 164.691406 44.554688 C 161.191406 43.832031 157.710938 42.929688 154.289062 41.890625 C 151.792969 41.125 149.332031 40.265625 146.898438 39.339844 C 145.816406 42.929688 144.449219 46.425781 142.832031 49.816406 C 140.632812 54.421875 137.960938 58.804688 134.882812 62.878906 C 133 65.375 130.9375 67.753906 128.753906 70.011719 C 128.769531 70.101562 128.769531 70.195312 128.722656 70.308594 C 128.625 70.535156 128.292969 70.652344 128.074219 70.71875 C 128.074219 70.71875 128.058594 70.726562 128.058594 70.726562 C 126.726562 72.058594 125.351562 73.328125 123.921875 74.566406 C 119.542969 78.3125 114.753906 81.566406 109.652344 84.265625 C 104.921875 86.777344 99.914062 88.777344 94.765625 90.246094 C 94.722656 90.320312 94.671875 90.382812 94.632812 90.433594 C 94.476562 90.648438 94.203125 90.910156 93.929688 90.980469 C 93.746094 91.035156 93.496094 91.023438 93.394531 90.820312 C 93.359375 90.738281 93.3125 90.664062 93.277344 90.582031 C 92.898438 90.625 92.472656 90.550781 92.492188 90.125 C 92.507812 89.929688 92.601562 89.742188 92.761719 89.582031 C 91.566406 87.269531 90.371094 84.957031 89.15625 82.652344 C 87.703125 84.996094 86.167969 87.277344 84.582031 89.519531 C 82.855469 91.933594 81.046875 94.289062 79.179688 96.589844 C 77.359375 98.816406 75.460938 100.996094 73.507812 103.085938 C 71.558594 105.175781 69.53125 107.21875 67.453125 109.1875 C 65.6875 110.847656 63.882812 112.460938 62.039062 114.015625 C 62.199219 114.046875 62.355469 114.058594 62.503906 114.09375 C 66.117188 114.675781 69.726562 115.242188 73.339844 115.824219 C 76.953125 116.40625 80.5625 116.972656 84.175781 117.554688 C 87.789062 118.132812 91.398438 118.699219 95.011719 119.28125 C 98.625 119.863281 102.234375 120.429688 105.847656 121.011719 C 108.332031 121.410156 110.808594 121.789062 113.289062 122.183594 C 112.933594 121.535156 112.59375 120.878906 112.246094 120.207031 C 110.457031 116.660156 108.988281 112.96875 107.855469 109.175781 C 107.75 108.820312 108.054688 108.679688 108.386719 108.621094 C 108.367188 108.480469 108.40625 108.292969 108.550781 108.234375 C 109.300781 107.894531 110.035156 107.5625 110.78125 107.203125 C 116.789062 104.402344 122.671875 101.296875 128.375 97.921875 C 133.785156 94.71875 139.199219 91.421875 143.90625 87.222656 C 148.390625 83.222656 152.363281 78.65625 155.988281 73.871094 C 159.277344 69.527344 162.132812 64.902344 164.371094 59.917969 C 166.476562 55.257812 168.054688 50.371094 169.445312 45.429688 Z M 90.851562 70.414062 C 91.171875 70.605469 91.519531 70.808594 91.824219 71.003906 C 94.023438 72.382812 96.09375 74.003906 97.957031 75.820312 C 98 75.691406 98.039062 75.558594 98.082031 75.429688 C 98.257812 74.832031 98.429688 74.230469 98.605469 73.632812 C 96.765625 71.597656 94.816406 69.667969 92.753906 67.835938 C 92.277344 67.402344 91.792969 66.996094 91.308594 66.585938 C 91.175781 67.847656 91.03125 69.132812 90.851562 70.414062 Z M 102.207031 82.753906 C 101.867188 79.378906 101.667969 75.984375 101.597656 72.578125 C 100.871094 75.230469 100.078125 77.851562 99.242188 80.457031 C 98.414062 83.039062 97.523438 85.605469 96.601562 88.148438 C 97.675781 87.808594 98.738281 87.457031 99.816406 87.078125 C 100.128906 86.972656 100.457031 86.839844 100.769531 86.730469 C 100.835938 86.707031 100.882812 86.6875 100.949219 86.660156 C 100.949219 86.660156 100.964844 86.652344 100.964844 86.652344 C 100.980469 86.648438 100.996094 86.640625 100.996094 86.640625 C 100.996094 86.640625 100.980469 86.648438 100.980469 86.648438 C 100.996094 86.640625 100.996094 86.640625 100.996094 86.640625 C 101.160156 86.574219 101.304688 86.515625 101.46875 86.449219 C 101.890625 86.28125 102.3125 86.109375 102.734375 85.941406 C 102.632812 85.867188 102.554688 85.769531 102.550781 85.617188 C 102.414062 84.671875 102.308594 83.714844 102.207031 82.753906 Z M 89.707031 76.617188 C 89.882812 76.394531 90.117188 76.1875 90.371094 76.066406 C 90.542969 75.976562 90.832031 75.898438 91.019531 76.03125 C 92.96875 77.546875 94.730469 79.292969 96.289062 81.191406 C 96.710938 79.890625 97.121094 78.574219 97.535156 77.253906 C 97.296875 77.273438 97.046875 77.261719 96.824219 77.222656 C 96.558594 77.175781 96.199219 77.078125 96.003906 76.871094 C 95.457031 76.316406 94.886719 75.792969 94.316406 75.265625 C 93.296875 74.375 92.234375 73.519531 91.125 72.738281 C 91.082031 72.71875 91.042969 72.679688 91 72.660156 C 90.917969 72.597656 91.003906 72.675781 91.050781 72.695312 C 90.992188 72.640625 90.902344 72.601562 90.84375 72.550781 C 90.761719 72.488281 90.664062 72.433594 90.582031 72.375 C 90.539062 72.636719 90.5 72.917969 90.4375 73.1875 C 90.1875 74.34375 89.945312 75.480469 89.707031 76.617188 Z M 88.648438 80.78125 C 88.785156 80.558594 88.910156 80.355469 89.046875 80.128906 C 89.246094 79.785156 89.882812 79.207031 90.253906 79.660156 C 90.289062 79.703125 90.308594 79.753906 90.328125 79.800781 C 90.429688 79.816406 90.527344 79.871094 90.589844 79.980469 C 91.824219 82.332031 93.039062 84.695312 94.277344 87.066406 C 94.59375 86.164062 94.925781 85.253906 95.226562 84.359375 C 95.253906 84.292969 95.285156 84.222656 95.289062 84.144531 C 95.152344 84.125 95.070312 84.066406 94.976562 83.929688 C 94.90625 83.847656 94.828125 83.746094 94.757812 83.664062 C 93.164062 81.679688 91.335938 79.867188 89.332031 78.316406 C 89.332031 78.316406 89.328125 78.296875 89.3125 78.304688 C 89.105469 79.105469 88.894531 79.945312 88.648438 80.78125 Z M 157.21875 26.210938 C 157.382812 26.523438 157.546875 26.832031 157.71875 27.160156 C 159.066406 29.714844 160.460938 32.230469 161.917969 34.71875 C 163.367188 37.195312 164.859375 39.632812 166.402344 42.050781 C 166.4375 42.09375 166.457031 42.140625 166.5 42.199219 C 166.640625 42.40625 166.636719 42.542969 166.53125 42.753906 C 166.4375 42.941406 166.246094 43.074219 166.050781 43.195312 C 166.234375 43.230469 166.421875 43.269531 166.605469 43.308594 C 167.65625 43.527344 168.71875 43.722656 169.773438 43.902344 C 169.246094 42.925781 168.730469 41.925781 168.203125 40.945312 C 165.804688 36.402344 163.40625 31.855469 161.003906 27.308594 C 159.746094 26.949219 158.484375 26.585938 157.21875 26.210938 Z M 148.898438 23.410156 C 148.945312 23.523438 148.988281 23.636719 149.035156 23.75 C 150.207031 26.5625 151.566406 29.28125 153.082031 31.917969 C 154.605469 34.570312 156.292969 37.121094 158.125 39.554688 C 158.257812 39.746094 158.125 40.023438 158.019531 40.179688 C 157.855469 40.472656 157.539062 40.675781 157.265625 40.84375 C 157.21875 40.863281 157.175781 40.898438 157.128906 40.917969 C 158.648438 41.363281 160.183594 41.800781 161.714844 42.183594 C 162.136719 42.296875 162.554688 42.394531 162.972656 42.488281 C 163.011719 42.492188 163.054688 42.511719 163.09375 42.515625 C 163.195312 42.53125 163.304688 42.5625 163.40625 42.578125 C 163.464844 42.59375 163.511719 42.613281 163.574219 42.625 C 162.8125 41.441406 162.066406 40.25 161.339844 39.050781 C 159.796875 36.539062 158.320312 34 156.902344 31.417969 C 155.730469 29.304688 154.597656 27.152344 153.507812 25.007812 C 151.96875 24.515625 150.429688 23.980469 148.898438 23.410156 Z M 139.175781 19.34375 C 139.542969 20.0625 139.902344 20.769531 140.253906 21.496094 C 142.285156 25.605469 144.195312 29.78125 145.96875 34.03125 C 146.234375 33.660156 146.707031 33.433594 147.125 33.300781 C 147.375 33.21875 147.75 33.164062 148.027344 33.238281 C 148.195312 33.285156 148.433594 33.453125 148.386719 33.660156 C 148.257812 34.28125 148.105469 34.886719 147.953125 35.496094 C 147.78125 36.191406 147.601562 36.867188 147.40625 37.550781 C 148.820312 38.113281 150.253906 38.667969 151.699219 39.160156 C 152.882812 39.570312 154.066406 39.980469 155.253906 40.351562 C 154.378906 39.15625 153.53125 37.949219 152.730469 36.707031 C 151.078125 34.160156 149.574219 31.503906 148.246094 28.769531 C 147.171875 26.578125 146.230469 24.335938 145.386719 22.050781 C 144.957031 21.882812 144.527344 21.699219 144.09375 21.515625 C 142.441406 20.839844 140.804688 20.101562 139.175781 19.34375 Z M 135.796875 28.429688 C 135.847656 28.371094 135.921875 28.320312 135.992188 28.253906 C 136.320312 27.992188 137.050781 27.601562 137.289062 28.148438 C 137.796875 29.265625 138.308594 30.398438 138.816406 31.515625 C 140.425781 35.039062 142.011719 38.554688 143.621094 42.078125 C 144.023438 40.875 144.410156 39.683594 144.753906 38.46875 C 144.617188 38.410156 144.488281 38.367188 144.351562 38.308594 C 144.144531 38.222656 143.933594 38.117188 143.875 37.878906 C 143.820312 37.65625 144.058594 37.445312 144.21875 37.324219 C 144.375 37.203125 144.601562 37.113281 144.828125 37.058594 C 144.375 35.9375 143.914062 34.839844 143.429688 33.734375 C 142.417969 31.367188 141.335938 29.007812 140.242188 26.671875 C 139.695312 25.496094 139.105469 24.320312 138.523438 23.15625 C 138.238281 22.589844 137.949219 22.007812 137.664062 21.445312 C 137.644531 21.394531 137.609375 21.355469 137.59375 21.320312 C 137.125 23.71875 136.535156 26.089844 135.796875 28.429688 Z M 129.789062 42.046875 C 128.773438 43.796875 127.664062 45.488281 126.480469 47.136719 C 127.148438 48 127.800781 48.871094 128.4375 49.746094 C 130.761719 52.984375 132.878906 56.359375 134.773438 59.84375 C 135.292969 59.070312 135.808594 58.292969 136.296875 57.492188 C 136.28125 57.5 136.28125 57.5 136.257812 57.488281 C 136.007812 57.476562 135.90625 57.367188 135.824219 57.15625 C 135.757812 56.992188 135.683594 56.8125 135.605469 56.65625 C 135.214844 55.738281 134.796875 54.847656 134.382812 53.957031 C 132.847656 50.761719 131.109375 47.667969 129.148438 44.722656 C 128.820312 44.230469 129.46875 43.59375 129.804688 43.304688 C 130.046875 43.113281 130.402344 42.914062 130.714844 42.84375 C 130.890625 42.8125 131.222656 42.789062 131.339844 42.988281 C 131.921875 43.867188 132.484375 44.753906 133.019531 45.652344 C 134.828125 48.644531 136.414062 51.78125 137.8125 54.972656 C 138.589844 53.621094 139.316406 52.234375 140 50.84375 C 139.910156 50.898438 139.796875 50.945312 139.691406 50.96875 C 139.554688 51.003906 139.148438 51.074219 139.054688 50.886719 C 138.554688 49.972656 138.0625 49.078125 137.5625 48.164062 C 135.828125 44.992188 134.089844 41.804688 132.359375 38.632812 C 132.226562 38.402344 132.25 38.222656 132.324219 37.984375 C 132.421875 37.664062 132.667969 37.390625 132.917969 37.160156 C 133.148438 36.9375 133.476562 36.726562 133.785156 36.640625 C 133.917969 36.605469 134.324219 36.535156 134.421875 36.722656 C 134.921875 37.636719 135.414062 38.53125 135.914062 39.445312 C 137.597656 42.542969 139.304688 45.648438 140.988281 48.746094 C 141.027344 48.65625 141.0625 48.566406 141.101562 48.472656 C 141.546875 47.464844 141.980469 46.4375 142.378906 45.410156 C 142.253906 45.386719 142.152344 45.3125 142.085938 45.152344 C 141.578125 44.035156 141.066406 42.902344 140.558594 41.785156 C 138.78125 37.890625 137 33.984375 135.238281 30.089844 C 135.074219 30.570312 134.898438 31.074219 134.71875 31.5625 C 133.40625 35.1875 131.746094 38.707031 129.789062 42.046875 Z M 116.121094 58.488281 C 116.558594 58.5 117 58.609375 117.316406 58.875 C 118.199219 59.617188 119.070312 60.378906 119.929688 61.144531 C 122.632812 63.546875 125.210938 66.097656 127.675781 68.746094 C 128.191406 68.199219 128.699219 67.636719 129.21875 67.046875 C 129.554688 66.667969 129.894531 66.285156 130.207031 65.894531 C 129.539062 65.125 128.878906 64.335938 128.242188 63.550781 C 125.832031 60.617188 123.539062 57.59375 121.355469 54.472656 C 121.007812 53.988281 121.539062 53.339844 121.875 52.996094 C 122.089844 52.78125 122.429688 52.546875 122.726562 52.445312 C 122.878906 52.402344 123.246094 52.332031 123.359375 52.511719 C 123.980469 53.394531 124.597656 54.277344 125.246094 55.132812 C 127.390625 58.0625 129.652344 60.90625 131.996094 63.683594 C 132.382812 63.1875 132.753906 62.699219 133.121094 62.210938 C 133.09375 62.183594 133.054688 62.140625 133.035156 62.09375 C 132.492188 61.066406 131.917969 60.070312 131.347656 59.074219 C 129.371094 55.714844 127.195312 52.476562 124.8125 49.378906 C 124.175781 50.183594 123.519531 50.992188 122.835938 51.777344 C 120.757812 54.164062 118.511719 56.410156 116.121094 58.488281 Z M 113.804688 60.425781 C 113.242188 60.859375 112.679688 61.292969 112.113281 61.710938 C 112.746094 62.34375 113.367188 62.996094 114 63.628906 C 117.078125 66.769531 120.15625 69.910156 123.242188 73.066406 C 123.421875 72.898438 123.617188 72.726562 123.792969 72.558594 C 124.609375 71.816406 125.375 71.089844 126.117188 70.359375 C 125.367188 69.527344 124.601562 68.703125 123.816406 67.886719 C 120.988281 64.949219 118.015625 62.164062 114.902344 59.546875 C 114.527344 59.832031 114.171875 60.125 113.804688 60.425781 Z M 106.113281 65.660156 C 106.65625 66.535156 107.183594 67.417969 107.683594 68.332031 C 109.855469 72.269531 111.625 76.425781 112.929688 80.734375 C 114.203125 79.957031 115.453125 79.132812 116.6875 78.257812 C 116.527344 78.1875 116.394531 78.089844 116.28125 77.949219 C 115.582031 77.058594 114.867188 76.175781 114.164062 75.273438 C 111.667969 72.125 109.1875 68.96875 106.691406 65.824219 C 106.539062 65.636719 106.675781 65.414062 106.8125 65.28125 C 107.011719 65.070312 107.355469 64.988281 107.628906 64.914062 C 108.1875 64.804688 108.992188 64.835938 109.378906 65.324219 C 110.078125 66.214844 110.792969 67.097656 111.496094 68 C 113.847656 70.980469 116.195312 73.941406 118.546875 76.921875 C 118.707031 76.800781 118.867188 76.679688 119.023438 76.558594 C 119.558594 76.15625 120.089844 75.734375 120.613281 75.296875 C 120.878906 75.074219 121.148438 74.851562 121.417969 74.628906 C 121.390625 74.605469 121.359375 74.578125 121.332031 74.554688 C 120.394531 73.589844 119.464844 72.644531 118.515625 71.6875 C 115.71875 68.828125 112.929688 65.988281 110.136719 63.128906 C 108.832031 64.015625 107.492188 64.859375 106.113281 65.660156 Z M 104.1875 66.738281 C 103.878906 66.898438 103.589844 67.074219 103.269531 67.21875 C 103.195312 67.269531 103.089844 67.292969 102.992188 67.332031 C 102.644531 68.71875 102.277344 70.09375 101.890625 71.476562 C 101.832031 71.707031 101.765625 71.921875 101.691406 72.160156 C 101.765625 72.058594 101.851562 71.945312 101.929688 71.859375 C 102.179688 71.585938 102.507812 71.417969 102.847656 71.28125 C 103.191406 71.140625 104.117188 70.957031 104.113281 71.5625 C 104.125 72.523438 104.148438 73.472656 104.195312 74.4375 C 104.328125 77.859375 104.621094 81.25 105.039062 84.632812 C 105.046875 84.742188 105.015625 84.851562 104.960938 84.949219 C 105.679688 84.621094 106.390625 84.277344 107.101562 83.933594 C 107.714844 83.628906 108.3125 83.332031 108.917969 83.011719 C 109.109375 82.917969 109.289062 82.804688 109.476562 82.710938 C 109.542969 82.683594 109.601562 82.644531 109.667969 82.617188 C 109.960938 82.460938 110.25 82.285156 110.546875 82.128906 C 110.742188 82.011719 110.925781 81.902344 111.128906 81.800781 C 110.789062 81.65625 110.492188 81.433594 110.382812 81.117188 C 110.011719 79.871094 109.621094 78.613281 109.183594 77.390625 C 108.394531 75.199219 107.492188 73.050781 106.464844 70.972656 C 106.457031 70.957031 106.394531 70.851562 106.386719 70.835938 C 106.363281 70.769531 106.320312 70.710938 106.292969 70.644531 C 106.226562 70.523438 106.171875 70.394531 106.105469 70.269531 C 105.988281 70.03125 105.867188 69.816406 105.75 69.582031 C 105.480469 69.046875 105.191406 68.523438 104.894531 68.019531 C 104.679688 67.578125 104.4375 67.164062 104.1875 66.738281 Z M 91.644531 57.445312 C 91.671875 58.828125 91.671875 60.226562 91.628906 61.625 C 91.597656 62.429688 91.5625 63.234375 91.511719 64.050781 C 91.554688 64.011719 91.597656 63.976562 91.640625 63.941406 C 91.753906 63.855469 92.109375 63.65625 92.261719 63.804688 C 92.882812 64.308594 93.492188 64.835938 94.085938 65.371094 C 95.960938 67.03125 97.738281 68.769531 99.4375 70.597656 C 99.746094 69.488281 100.035156 68.375 100.304688 67.265625 C 100.058594 67.214844 99.742188 67.132812 99.558594 66.960938 C 98.722656 66.203125 97.933594 65.40625 97.148438 64.589844 C 95.09375 62.398438 93.246094 60.007812 91.644531 57.445312 Z M 77.738281 82.800781 C 78.179688 85.777344 78.925781 88.703125 79.972656 91.53125 C 80.105469 91.910156 80.257812 92.285156 80.40625 92.65625 C 81.46875 91.304688 82.480469 89.933594 83.488281 88.542969 C 83.472656 88.550781 83.460938 88.574219 83.445312 88.582031 C 83.234375 88.761719 82.914062 88.945312 82.636719 88.964844 C 82.472656 88.972656 82.179688 88.902344 82.148438 88.6875 C 82.027344 87.773438 81.9375 86.847656 81.851562 85.9375 C 81.601562 82.886719 81.640625 79.792969 81.964844 76.753906 C 82.039062 76.101562 82.582031 75.523438 83.109375 75.195312 C 83.292969 75.085938 83.632812 74.949219 83.855469 75.027344 C 84.054688 75.101562 84.171875 75.296875 84.140625 75.5 C 84.054688 76.363281 83.984375 77.222656 83.9375 78.09375 C 83.863281 79.59375 83.851562 81.109375 83.902344 82.636719 C 83.925781 83.402344 83.984375 84.152344 84.042969 84.90625 C 84.058594 85.085938 84.082031 85.285156 84.097656 85.46875 C 84.101562 85.523438 84.105469 85.578125 84.109375 85.632812 C 84.109375 85.632812 84.121094 85.664062 84.113281 85.6875 C 84.117188 85.703125 84.113281 85.742188 84.113281 85.742188 C 84.117188 85.796875 84.121094 85.855469 84.125 85.910156 C 84.164062 86.289062 84.222656 86.664062 84.261719 87.042969 C 84.289062 87.203125 84.277344 87.359375 84.222656 87.511719 C 84.257812 87.460938 84.3125 87.402344 84.339844 87.332031 C 84.757812 86.730469 85.175781 86.128906 85.59375 85.523438 C 85.601562 85.445312 85.621094 85.363281 85.636719 85.300781 C 86.320312 83.25 86.941406 81.1875 87.457031 79.089844 C 87.679688 78.148438 87.90625 77.210938 88.09375 76.265625 C 88.144531 76.019531 88.195312 75.773438 88.246094 75.523438 C 88.265625 75.480469 88.261719 75.421875 88.28125 75.378906 C 88.28125 75.378906 88.289062 75.394531 88.273438 75.402344 C 88.289062 75.300781 88.3125 75.175781 88.328125 75.074219 C 88.421875 74.605469 88.507812 74.117188 88.585938 73.648438 C 88.707031 72.921875 88.8125 72.199219 88.917969 71.476562 C 88.519531 71.242188 88.128906 71.019531 87.722656 70.808594 C 87.527344 70.699219 87.351562 70.542969 87.332031 70.304688 C 87.3125 70.066406 87.574219 69.921875 87.761719 69.828125 C 88.042969 69.679688 88.445312 69.648438 88.765625 69.648438 C 88.898438 69.652344 89.039062 69.671875 89.179688 69.691406 C 89.25 69.117188 89.304688 68.546875 89.375 67.96875 C 89.566406 66.0625 89.683594 64.144531 89.71875 62.222656 C 89.734375 61.746094 89.742188 61.25 89.742188 60.78125 C 89.734375 60.761719 89.742188 60.742188 89.738281 60.722656 C 88.867188 62.832031 87.9375 64.925781 86.933594 66.972656 C 85.46875 69.996094 83.871094 72.964844 82.167969 75.859375 C 80.804688 78.183594 79.3125 80.523438 77.738281 82.800781 Z M 73.8125 88.195312 C 74.027344 88.355469 74.285156 88.574219 74.382812 88.816406 C 75.417969 91.289062 76.460938 93.777344 77.511719 96.242188 C 77.683594 96.019531 77.882812 95.808594 78.058594 95.585938 C 78.265625 95.351562 78.449219 95.109375 78.65625 94.875 C 78.5 94.859375 78.355469 94.824219 78.300781 94.695312 C 77.964844 93.90625 77.652344 93.085938 77.367188 92.277344 C 76.609375 90.167969 76.035156 88 75.625 85.804688 C 75.023438 86.613281 74.417969 87.40625 73.8125 88.195312 Z M 70.738281 92.042969 C 69.03125 94.089844 67.246094 96.074219 65.394531 97.992188 C 65.421875 98.058594 65.429688 98.128906 65.425781 98.207031 C 65.386719 98.390625 65.339844 98.5625 65.304688 98.746094 C 65.417969 98.699219 65.535156 98.671875 65.625 98.65625 C 65.953125 98.578125 66.382812 98.613281 66.699219 98.695312 C 66.929688 98.753906 67.34375 98.886719 67.503906 99.105469 C 68.578125 100.597656 69.660156 102.105469 70.734375 103.601562 C 70.746094 103.632812 70.769531 103.640625 70.777344 103.660156 C 71.273438 103.15625 71.753906 102.660156 72.242188 102.140625 C 72.207031 102.101562 72.152344 102.066406 72.132812 102.015625 C 70.972656 100.125 69.816406 98.230469 68.65625 96.335938 C 68.53125 96.125 68.621094 95.785156 68.6875 95.570312 C 68.792969 95.226562 69.027344 94.921875 69.261719 94.65625 C 69.539062 94.359375 70.222656 93.855469 70.527344 94.375 C 71.6875 96.269531 72.84375 98.160156 74.003906 100.054688 C 74.023438 100.101562 74.039062 100.132812 74.058594 100.183594 C 74.867188 99.289062 75.6875 98.375 76.46875 97.453125 C 76.269531 97.382812 76.082031 97.289062 75.925781 97.183594 C 75.695312 97.03125 75.414062 96.804688 75.300781 96.527344 C 74.367188 94.300781 73.4375 92.085938 72.5 89.859375 C 71.914062 90.605469 71.335938 91.328125 70.738281 92.042969 Z M 70.738281 92.042969 " fill-opacity="1" fill-rule="nonzero"/></g></g></g><g fill="#ffffff" fill-opacity="1"><g transform="translate(88.314864, 103.252052)"><g><path d="M 1.859375 0.0625 C 1.566406 0.0625 1.304688 0 1.078125 -0.125 C 0.859375 -0.257812 0.679688 -0.453125 0.546875 -0.703125 C 0.421875 -0.960938 0.359375 -1.265625 0.359375 -1.609375 C 0.359375 -1.960938 0.421875 -2.265625 0.546875 -2.515625 C 0.679688 -2.773438 0.859375 -2.96875 1.078125 -3.09375 C 1.304688 -3.226562 1.566406 -3.296875 1.859375 -3.296875 C 2.203125 -3.296875 2.472656 -3.226562 2.671875 -3.09375 C 2.867188 -2.96875 3.015625 -2.796875 3.109375 -2.578125 L 2.78125 -2.34375 L 2.71875 -2.34375 C 2.632812 -2.519531 2.523438 -2.648438 2.390625 -2.734375 C 2.253906 -2.816406 2.078125 -2.859375 1.859375 -2.859375 C 1.660156 -2.859375 1.484375 -2.8125 1.328125 -2.71875 C 1.179688 -2.625 1.066406 -2.484375 0.984375 -2.296875 C 0.898438 -2.109375 0.859375 -1.878906 0.859375 -1.609375 C 0.859375 -1.335938 0.898438 -1.109375 0.984375 -0.921875 C 1.066406 -0.742188 1.179688 -0.601562 1.328125 -0.5 C 1.484375 -0.40625 1.660156 -0.359375 1.859375 -0.359375 C 2.078125 -0.359375 2.257812 -0.410156 2.40625 -0.515625 C 2.5625 -0.617188 2.679688 -0.78125 2.765625 -1 L 2.828125 -1 L 3.140625 -0.8125 C 3.054688 -0.539062 2.90625 -0.328125 2.6875 -0.171875 C 2.46875 -0.015625 2.191406 0.0625 1.859375 0.0625 Z M 1.859375 0.0625 "/></g></g><g transform="translate(91.644141, 103.252052)"><g><path d="M 1.28125 0.0625 C 1.050781 0.0625 0.867188 0 0.734375 -0.125 C 0.609375 -0.257812 0.546875 -0.457031 0.546875 -0.71875 L 0.546875 -4.53125 L 1.03125 -4.53125 L 1.03125 -0.75 C 1.03125 -0.613281 1.054688 -0.515625 1.109375 -0.453125 C 1.160156 -0.390625 1.238281 -0.359375 1.34375 -0.359375 C 1.414062 -0.359375 1.484375 -0.375 1.546875 -0.40625 L 1.59375 -0.390625 L 1.640625 -0.015625 C 1.609375 0.015625 1.554688 0.0351562 1.484375 0.046875 C 1.421875 0.0546875 1.351562 0.0625 1.28125 0.0625 Z M 1.28125 0.0625 "/></g></g><g transform="translate(93.401016, 103.252052)"><g><path d="M 0.796875 -3.859375 C 0.703125 -3.859375 0.617188 -3.890625 0.546875 -3.953125 C 0.484375 -4.015625 0.453125 -4.09375 0.453125 -4.1875 C 0.453125 -4.289062 0.484375 -4.375 0.546875 -4.4375 C 0.617188 -4.5 0.703125 -4.53125 0.796875 -4.53125 C 0.898438 -4.53125 0.984375 -4.5 1.046875 -4.4375 C 1.109375 -4.375 1.140625 -4.289062 1.140625 -4.1875 C 1.140625 -4.09375 1.109375 -4.015625 1.046875 -3.953125 C 0.984375 -3.890625 0.898438 -3.859375 0.796875 -3.859375 Z M 0.5625 0 L 0.5625 -3.234375 L 1.046875 -3.234375 L 1.046875 0 Z M 0.5625 0 "/></g></g><g transform="translate(95.0027, 103.252052)"><g><path d="M 1.859375 0.0625 C 1.566406 0.0625 1.304688 0 1.078125 -0.125 C 0.859375 -0.257812 0.679688 -0.453125 0.546875 -0.703125 C 0.421875 -0.960938 0.359375 -1.265625 0.359375 -1.609375 C 0.359375 -1.960938 0.421875 -2.265625 0.546875 -2.515625 C 0.679688 -2.773438 0.859375 -2.96875 1.078125 -3.09375 C 1.304688 -3.226562 1.566406 -3.296875 1.859375 -3.296875 C 2.203125 -3.296875 2.472656 -3.226562 2.671875 -3.09375 C 2.867188 -2.96875 3.015625 -2.796875 3.109375 -2.578125 L 2.78125 -2.34375 L 2.71875 -2.34375 C 2.632812 -2.519531 2.523438 -2.648438 2.390625 -2.734375 C 2.253906 -2.816406 2.078125 -2.859375 1.859375 -2.859375 C 1.660156 -2.859375 1.484375 -2.8125 1.328125 -2.71875 C 1.179688 -2.625 1.066406 -2.484375 0.984375 -2.296875 C 0.898438 -2.109375 0.859375 -1.878906 0.859375 -1.609375 C 0.859375 -1.335938 0.898438 -1.109375 0.984375 -0.921875 C 1.066406 -0.742188 1.179688 -0.601562 1.328125 -0.5 C 1.484375 -0.40625 1.660156 -0.359375 1.859375 -0.359375 C 2.078125 -0.359375 2.257812 -0.410156 2.40625 -0.515625 C 2.5625 -0.617188 2.679688 -0.78125 2.765625 -1 L 2.828125 -1 L 3.140625 -0.8125 C 3.054688 -0.539062 2.90625 -0.328125 2.6875 -0.171875 C 2.46875 -0.015625 2.191406 0.0625 1.859375 0.0625 Z M 1.859375 0.0625 "/></g></g><g transform="translate(98.331978, 103.252052)"><g><path d="M 0.5625 0 L 0.5625 -4.53125 L 1.046875 -4.53125 L 1.046875 -1.890625 L 1.125 -1.890625 L 2.328125 -3.234375 L 2.828125 -3.234375 L 2.828125 -3.171875 L 1.546875 -1.71875 L 2.9375 -0.078125 L 2.9375 0 L 2.40625 0 L 1.125 -1.5 L 1.046875 -1.5 L 1.046875 0 Z M 0.5625 0 "/></g></g></g><g fill="#ffffff" fill-opacity="1"><g transform="translate(110.121407, 96.205806)"><g><path d="M 0.5625 0 L 0.5625 -4.53125 L 1.046875 -4.53125 L 1.046875 -2.765625 L 1.109375 -2.765625 C 1.335938 -3.117188 1.664062 -3.296875 2.09375 -3.296875 C 2.488281 -3.296875 2.769531 -3.195312 2.9375 -3 C 3.113281 -2.800781 3.203125 -2.492188 3.203125 -2.078125 L 3.203125 0 L 2.734375 0 L 2.734375 -2.0625 C 2.734375 -2.257812 2.707031 -2.414062 2.65625 -2.53125 C 2.601562 -2.65625 2.523438 -2.742188 2.421875 -2.796875 C 2.316406 -2.847656 2.179688 -2.875 2.015625 -2.875 C 1.722656 -2.875 1.488281 -2.78125 1.3125 -2.59375 C 1.132812 -2.40625 1.046875 -2.09375 1.046875 -1.65625 L 1.046875 0 Z M 0.5625 0 "/></g></g><g transform="translate(113.840125, 96.205806)"><g><path d="M 3.078125 -1.5 L 0.859375 -1.5 C 0.867188 -1.113281 0.960938 -0.828125 1.140625 -0.640625 C 1.316406 -0.453125 1.554688 -0.359375 1.859375 -0.359375 C 2.085938 -0.359375 2.269531 -0.398438 2.40625 -0.484375 C 2.550781 -0.566406 2.664062 -0.695312 2.75 -0.875 L 2.8125 -0.875 L 3.125 -0.6875 C 3.03125 -0.457031 2.878906 -0.273438 2.671875 -0.140625 C 2.460938 -0.00390625 2.191406 0.0625 1.859375 0.0625 C 1.546875 0.0625 1.273438 0 1.046875 -0.125 C 0.828125 -0.25 0.65625 -0.4375 0.53125 -0.6875 C 0.414062 -0.9375 0.359375 -1.242188 0.359375 -1.609375 C 0.359375 -1.984375 0.421875 -2.296875 0.546875 -2.546875 C 0.671875 -2.796875 0.84375 -2.984375 1.0625 -3.109375 C 1.289062 -3.234375 1.546875 -3.296875 1.828125 -3.296875 C 2.242188 -3.296875 2.566406 -3.175781 2.796875 -2.9375 C 3.035156 -2.707031 3.15625 -2.363281 3.15625 -1.90625 C 3.15625 -1.726562 3.148438 -1.609375 3.140625 -1.546875 Z M 2.6875 -1.90625 C 2.675781 -2.25 2.597656 -2.5 2.453125 -2.65625 C 2.304688 -2.8125 2.097656 -2.890625 1.828125 -2.890625 C 1.546875 -2.890625 1.320312 -2.8125 1.15625 -2.65625 C 1 -2.5 0.90625 -2.25 0.875 -1.90625 Z M 2.6875 -1.90625 "/></g></g><g transform="translate(117.2836, 96.205806)"><g><path d="M 0.5625 0 L 0.5625 -3.234375 L 1.015625 -3.234375 L 1.015625 -2.71875 L 1.078125 -2.703125 C 1.222656 -3.078125 1.503906 -3.265625 1.921875 -3.265625 C 2.148438 -3.265625 2.316406 -3.222656 2.421875 -3.140625 L 2.296875 -2.734375 L 2.234375 -2.71875 C 2.117188 -2.78125 1.988281 -2.8125 1.84375 -2.8125 C 1.582031 -2.8125 1.382812 -2.710938 1.25 -2.515625 C 1.113281 -2.328125 1.046875 -2.015625 1.046875 -1.578125 L 1.046875 0 Z M 0.5625 0 "/></g></g></g><g fill="#ffffff" fill-opacity="1"><g transform="translate(119.693447, 96.205806)"><g><path d="M 3.078125 -1.5 L 0.859375 -1.5 C 0.867188 -1.113281 0.960938 -0.828125 1.140625 -0.640625 C 1.316406 -0.453125 1.554688 -0.359375 1.859375 -0.359375 C 2.085938 -0.359375 2.269531 -0.398438 2.40625 -0.484375 C 2.550781 -0.566406 2.664062 -0.695312 2.75 -0.875 L 2.8125 -0.875 L 3.125 -0.6875 C 3.03125 -0.457031 2.878906 -0.273438 2.671875 -0.140625 C 2.460938 -0.00390625 2.191406 0.0625 1.859375 0.0625 C 1.546875 0.0625 1.273438 0 1.046875 -0.125 C 0.828125 -0.25 0.65625 -0.4375 0.53125 -0.6875 C 0.414062 -0.9375 0.359375 -1.242188 0.359375 -1.609375 C 0.359375 -1.984375 0.421875 -2.296875 0.546875 -2.546875 C 0.671875 -2.796875 0.84375 -2.984375 1.0625 -3.109375 C 1.289062 -3.234375 1.546875 -3.296875 1.828125 -3.296875 C 2.242188 -3.296875 2.566406 -3.175781 2.796875 -2.9375 C 3.035156 -2.707031 3.15625 -2.363281 3.15625 -1.90625 C 3.15625 -1.726562 3.148438 -1.609375 3.140625 -1.546875 Z M 2.6875 -1.90625 C 2.675781 -2.25 2.597656 -2.5 2.453125 -2.65625 C 2.304688 -2.8125 2.097656 -2.890625 1.828125 -2.890625 C 1.546875 -2.890625 1.320312 -2.8125 1.15625 -2.65625 C 1 -2.5 0.90625 -2.25 0.875 -1.90625 Z M 2.6875 -1.90625 "/></g></g></g><g fill="#ffffff" fill-opacity="1"><g transform="translate(125.359375, 86.560608)"><g><path d="M 0.5625 1.3125 L 0.5625 -3.234375 L 1.046875 -3.234375 L 1.046875 -2.75 L 1.109375 -2.734375 C 1.347656 -3.109375 1.695312 -3.296875 2.15625 -3.296875 C 2.425781 -3.296875 2.660156 -3.234375 2.859375 -3.109375 C 3.066406 -2.984375 3.222656 -2.796875 3.328125 -2.546875 C 3.441406 -2.296875 3.5 -1.984375 3.5 -1.609375 C 3.5 -1.242188 3.441406 -0.9375 3.328125 -0.6875 C 3.210938 -0.4375 3.050781 -0.25 2.84375 -0.125 C 2.632812 0 2.394531 0.0625 2.125 0.0625 C 1.90625 0.0625 1.707031 0.0234375 1.53125 -0.046875 C 1.363281 -0.128906 1.222656 -0.253906 1.109375 -0.421875 L 1.046875 -0.421875 L 1.046875 1.3125 Z M 2.015625 -0.359375 C 2.671875 -0.359375 3 -0.773438 3 -1.609375 C 3 -2.441406 2.671875 -2.859375 2.015625 -2.859375 C 1.828125 -2.859375 1.660156 -2.816406 1.515625 -2.734375 C 1.367188 -2.648438 1.253906 -2.515625 1.171875 -2.328125 C 1.085938 -2.140625 1.046875 -1.898438 1.046875 -1.609375 C 1.046875 -1.328125 1.085938 -1.09375 1.171875 -0.90625 C 1.253906 -0.71875 1.367188 -0.578125 1.515625 -0.484375 C 1.660156 -0.398438 1.828125 -0.359375 2.015625 -0.359375 Z M 2.015625 -0.359375 "/></g></g><g transform="translate(129.212787, 86.560608)"><g><path d="M 1.28125 0.0625 C 1.050781 0.0625 0.867188 0 0.734375 -0.125 C 0.609375 -0.257812 0.546875 -0.457031 0.546875 -0.71875 L 0.546875 -4.53125 L 1.03125 -4.53125 L 1.03125 -0.75 C 1.03125 -0.613281 1.054688 -0.515625 1.109375 -0.453125 C 1.160156 -0.390625 1.238281 -0.359375 1.34375 -0.359375 C 1.414062 -0.359375 1.484375 -0.375 1.546875 -0.40625 L 1.59375 -0.390625 L 1.640625 -0.015625 C 1.609375 0.015625 1.554688 0.0351562 1.484375 0.046875 C 1.421875 0.0546875 1.351562 0.0625 1.28125 0.0625 Z M 1.28125 0.0625 "/></g></g><g transform="translate(130.969662, 86.560608)"><g><path d="M 1.46875 0.0625 C 1.269531 0.0625 1.082031 0.0351562 0.90625 -0.015625 C 0.738281 -0.0664062 0.59375 -0.140625 0.46875 -0.234375 C 0.351562 -0.328125 0.269531 -0.4375 0.21875 -0.5625 L 0.5 -0.84375 L 0.5625 -0.84375 C 0.664062 -0.6875 0.789062 -0.566406 0.9375 -0.484375 C 1.09375 -0.398438 1.269531 -0.359375 1.46875 -0.359375 C 1.707031 -0.359375 1.890625 -0.40625 2.015625 -0.5 C 2.140625 -0.59375 2.203125 -0.722656 2.203125 -0.890625 C 2.203125 -1.015625 2.164062 -1.117188 2.09375 -1.203125 C 2.019531 -1.285156 1.894531 -1.347656 1.71875 -1.390625 L 1.1875 -1.53125 C 0.894531 -1.601562 0.679688 -1.710938 0.546875 -1.859375 C 0.410156 -2.015625 0.34375 -2.203125 0.34375 -2.421875 C 0.34375 -2.597656 0.382812 -2.75 0.46875 -2.875 C 0.5625 -3.007812 0.691406 -3.113281 0.859375 -3.1875 C 1.035156 -3.257812 1.238281 -3.296875 1.46875 -3.296875 C 1.757812 -3.296875 1.988281 -3.253906 2.15625 -3.171875 C 2.332031 -3.085938 2.46875 -2.972656 2.5625 -2.828125 L 2.296875 -2.5625 L 2.234375 -2.5625 C 2.140625 -2.675781 2.03125 -2.757812 1.90625 -2.8125 C 1.78125 -2.863281 1.632812 -2.890625 1.46875 -2.890625 C 1.257812 -2.890625 1.097656 -2.851562 0.984375 -2.78125 C 0.867188 -2.707031 0.8125 -2.597656 0.8125 -2.453125 C 0.8125 -2.316406 0.847656 -2.207031 0.921875 -2.125 C 1.003906 -2.050781 1.144531 -1.988281 1.34375 -1.9375 L 1.890625 -1.8125 C 2.171875 -1.75 2.375 -1.640625 2.5 -1.484375 C 2.625 -1.328125 2.6875 -1.132812 2.6875 -0.90625 C 2.6875 -0.707031 2.640625 -0.535156 2.546875 -0.390625 C 2.453125 -0.253906 2.3125 -0.144531 2.125 -0.0625 C 1.945312 0.0195312 1.726562 0.0625 1.46875 0.0625 Z M 1.46875 0.0625 "/></g></g></g><g fill="#ffffff" fill-opacity="1"><g transform="translate(136.626798, 73.350878)"><g><path d="M 0.5625 0 L 0.5625 -3.234375 L 1.015625 -3.234375 L 1.015625 -2.71875 L 1.078125 -2.703125 C 1.179688 -2.898438 1.316406 -3.046875 1.484375 -3.140625 C 1.648438 -3.242188 1.851562 -3.296875 2.09375 -3.296875 C 2.488281 -3.296875 2.769531 -3.195312 2.9375 -3 C 3.113281 -2.800781 3.203125 -2.492188 3.203125 -2.078125 L 3.203125 0 L 2.734375 0 L 2.734375 -2.0625 C 2.734375 -2.257812 2.707031 -2.414062 2.65625 -2.53125 C 2.601562 -2.65625 2.523438 -2.742188 2.421875 -2.796875 C 2.316406 -2.847656 2.179688 -2.875 2.015625 -2.875 C 1.722656 -2.875 1.488281 -2.773438 1.3125 -2.578125 C 1.132812 -2.390625 1.046875 -2.082031 1.046875 -1.65625 L 1.046875 0 Z M 0.5625 0 "/></g></g><g transform="translate(140.345516, 73.350878)"><g><path d="M 1.859375 0.0625 C 1.546875 0.0625 1.273438 0 1.046875 -0.125 C 0.828125 -0.257812 0.65625 -0.453125 0.53125 -0.703125 C 0.414062 -0.953125 0.359375 -1.253906 0.359375 -1.609375 C 0.359375 -1.972656 0.414062 -2.28125 0.53125 -2.53125 C 0.65625 -2.78125 0.828125 -2.96875 1.046875 -3.09375 C 1.273438 -3.226562 1.546875 -3.296875 1.859375 -3.296875 C 2.160156 -3.296875 2.421875 -3.226562 2.640625 -3.09375 C 2.867188 -2.96875 3.046875 -2.78125 3.171875 -2.53125 C 3.296875 -2.28125 3.359375 -1.972656 3.359375 -1.609375 C 3.359375 -1.253906 3.296875 -0.953125 3.171875 -0.703125 C 3.046875 -0.453125 2.867188 -0.257812 2.640625 -0.125 C 2.421875 0 2.160156 0.0625 1.859375 0.0625 Z M 1.859375 -0.359375 C 2.179688 -0.359375 2.425781 -0.457031 2.59375 -0.65625 C 2.757812 -0.863281 2.84375 -1.179688 2.84375 -1.609375 C 2.84375 -2.035156 2.757812 -2.347656 2.59375 -2.546875 C 2.425781 -2.753906 2.179688 -2.859375 1.859375 -2.859375 C 1.535156 -2.859375 1.285156 -2.753906 1.109375 -2.546875 C 0.941406 -2.347656 0.859375 -2.035156 0.859375 -1.609375 C 0.859375 -1.179688 0.941406 -0.863281 1.109375 -0.65625 C 1.285156 -0.457031 1.535156 -0.359375 1.859375 -0.359375 Z M 1.859375 -0.359375 "/></g></g></g><g fill="#ffffff" fill-opacity="1"><g transform="translate(144.029097, 73.350878)"><g><path d="M 1.609375 0 L 1 0 L 0.203125 -3.234375 L 0.6875 -3.234375 L 1.296875 -0.5625 L 1.359375 -0.5625 L 2.109375 -3.234375 L 2.609375 -3.234375 L 3.390625 -0.5625 L 3.453125 -0.5625 L 4.046875 -3.234375 L 4.5 -3.234375 L 3.71875 0 L 3.109375 0 L 2.375 -2.515625 L 2.3125 -2.515625 Z M 1.609375 0 "/></g></g></g><g fill="#ffffff" fill-opacity="1"><g transform="translate(150.649148, 57.83468)"><g><path d="M 1.859375 0.0625 C 1.546875 0.0625 1.273438 0 1.046875 -0.125 C 0.828125 -0.257812 0.65625 -0.453125 0.53125 -0.703125 C 0.414062 -0.953125 0.359375 -1.253906 0.359375 -1.609375 C 0.359375 -1.972656 0.414062 -2.28125 0.53125 -2.53125 C 0.65625 -2.78125 0.828125 -2.96875 1.046875 -3.09375 C 1.273438 -3.226562 1.546875 -3.296875 1.859375 -3.296875 C 2.160156 -3.296875 2.421875 -3.226562 2.640625 -3.09375 C 2.867188 -2.96875 3.046875 -2.78125 3.171875 -2.53125 C 3.296875 -2.28125 3.359375 -1.972656 3.359375 -1.609375 C 3.359375 -1.253906 3.296875 -0.953125 3.171875 -0.703125 C 3.046875 -0.453125 2.867188 -0.257812 2.640625 -0.125 C 2.421875 0 2.160156 0.0625 1.859375 0.0625 Z M 1.859375 -0.359375 C 2.179688 -0.359375 2.425781 -0.457031 2.59375 -0.65625 C 2.757812 -0.863281 2.84375 -1.179688 2.84375 -1.609375 C 2.84375 -2.035156 2.757812 -2.347656 2.59375 -2.546875 C 2.425781 -2.753906 2.179688 -2.859375 1.859375 -2.859375 C 1.535156 -2.859375 1.285156 -2.753906 1.109375 -2.546875 C 0.941406 -2.347656 0.859375 -2.035156 0.859375 -1.609375 C 0.859375 -1.179688 0.941406 -0.863281 1.109375 -0.65625 C 1.285156 -0.457031 1.535156 -0.359375 1.859375 -0.359375 Z M 1.859375 -0.359375 "/></g></g><g transform="translate(154.356153, 57.83468)"><g><path d="M 0.5625 0 L 0.5625 -4.53125 L 1.046875 -4.53125 L 1.046875 -1.890625 L 1.125 -1.890625 L 2.328125 -3.234375 L 2.828125 -3.234375 L 2.828125 -3.171875 L 1.546875 -1.71875 L 2.9375 -0.078125 L 2.9375 0 L 2.40625 0 L 1.125 -1.5 L 1.046875 -1.5 L 1.046875 0 Z M 0.5625 0 "/></g></g></g></svg>